<svg width="194" height="40" viewBox="0 0 194 40" xmlns="http://www.w3.org/2000/svg">
    <path class="uk-text-primary" fill="#4faae7" d="M43,18c0,8.7-5.29,16.16-12.82,19.35-2.52,1.06-5.28,1.65-8.18,1.65C10.4,39,1,29.6,1,18H9.58c2.16,7.61,5.72,17,5.72,17,0,0,3.5-5.9,6.7-11.9,3.2,6,6.7,11.9,6.7,11.9,0,0,3.56-9.39,5.72-17h8.58Z" />
    <path fill="#1e3876" d="M63.3,23.5v-7.7h2.5v13.1h-2.5v-2.2h-.1c-.322,.672-.803,1.255-1.4,1.7-.736,.498-1.613,.744-2.5,.7-.776,.018-1.54-.191-2.2-.6-.696-.341-1.259-.904-1.6-1.6-.338-.86-.508-1.776-.5-2.7V15.8h2.5v8.1c-.026,.779,.262,1.536,.8,2.1,.496,.517,1.183,.807,1.9,.8,.498,.022,.989-.119,1.4-.4,.512-.223,.934-.61,1.2-1.1,.342-.537,.516-1.164,.5-1.8Zm8.5-2.3v7.7h-2.5V15.8h2.4v2.2h.2c.258-.71,.752-1.31,1.4-1.7,.728-.42,1.56-.628,2.4-.6,.826,0,1.643,.17,2.4,.5,.675,.385,1.202,.983,1.5,1.7,.431,.833,.638,1.763,.6,2.7v8.3h-2.6v-8c.059-.796-.192-1.584-.7-2.2-.503-.568-1.244-.864-2-.8-.561-.024-1.117,.115-1.6,.4-.483,.228-.872,.617-1.1,1.1-.297,.552-.435,1.175-.4,1.8Zm13.1-7.4c-.407,.034-.809-.112-1.1-.4-.337-.262-.524-.673-.5-1.1-.024-.427,.163-.838,.5-1.1,.291-.288,.693-.434,1.1-.4,.406-.021,.803,.123,1.1,.4,.304,.287,.484,.682,.5,1.1-.016,.418-.196,.813-.5,1.1-.297,.277-.694,.421-1.1,.4Zm-1.3,15.1V15.8h2.6v13.1h-2.6Zm11.5,.3c-1.117,.008-2.218-.267-3.2-.8-.905-.624-1.657-1.445-2.2-2.4-.509-1.13-.749-2.362-.7-3.6-.04-1.205,.199-2.403,.7-3.5,.543-.955,1.295-1.776,2.2-2.4,2-1.067,4.4-1.067,6.4,0,.9,.6,1.625,1.428,2.1,2.4,.535,1.089,.809,2.287,.8,3.5,.017,1.246-.257,2.479-.8,3.6-.475,.972-1.2,1.8-2.1,2.4-.982,.533-2.083,.808-3.2,.8Zm0-2.1c.727,0,1.432-.246,2-.7,.531-.442,.914-1.035,1.1-1.7,.293-.73,.43-1.514,.4-2.3,.021-.786-.115-1.568-.4-2.3-.211-.654-.59-1.24-1.1-1.7-1.211-.809-2.789-.809-4,0-.51,.48-.919,1.058-1.2,1.7-.205,.749-.306,1.523-.3,2.3-.012,.777,.089,1.552,.3,2.3,.255,.656,.667,1.24,1.2,1.7,.568,.454,1.273,.701,2,.7Zm11.5-5.9v7.7h-2.6V15.8h2.5v2.2h.1c.298-.717,.825-1.315,1.5-1.7,.724-.431,1.559-.639,2.4-.6,.795-.011,1.582,.16,2.3,.5,.677,.412,1.229,1,1.6,1.7,.431,.833,.638,1.763,.6,2.7v8.3h-2.6v-8c.059-.796-.192-1.584-.7-2.2-.534-.584-1.313-.881-2.1-.8-.531-.037-1.058,.104-1.5,.4-.5,.203-.897,.6-1.1,1.1-.297,.552-.435,1.175-.4,1.8Zm23,8c-.989-.005-1.958-.282-2.8-.8-.864-.587-1.527-1.424-1.9-2.4-.509-1.13-.749-2.362-.7-3.6-.049-1.238,.191-2.47,.7-3.6,.373-.949,1.038-1.755,1.9-2.3,.822-.563,1.805-.844,2.8-.8,.691-.057,1.384,.082,2,.4,.456,.217,.864,.523,1.2,.9,.2,.4,.5,.7,.6,1h.2v-6.5h2.5V28.9h-2.5v-2h-.2c-.169,.345-.407,.651-.7,.9-.266,.43-.647,.776-1.1,1-.621,.304-1.31,.442-2,.4Zm.6-2.2c.652,.016,1.288-.197,1.8-.6,.556-.396,.975-.955,1.2-1.6,.293-.765,.429-1.581,.4-2.4,.029-.819-.107-1.635-.4-2.4-.37-1.34-1.611-2.25-3-2.2-.684-.031-1.357,.182-1.9,.6-.533,.46-.945,1.044-1.2,1.7-.256,.74-.391,1.517-.4,2.3,.019,.782,.154,1.557,.4,2.3,.255,.656,.667,1.24,1.2,1.7,.543,.418,1.216,.631,1.9,.6h0Zm15.2,2.2c-1.15,.021-2.287-.254-3.3-.8-.955-.564-1.721-1.4-2.2-2.4-.501-1.097-.74-2.295-.7-3.5-.049-1.238,.191-2.47,.7-3.6,.475-.972,1.2-1.8,2.1-2.4,.982-.533,2.083-.808,3.2-.8,.743,.001,1.483,.102,2.2,.3,.658,.306,1.265,.71,1.8,1.2,.602,.541,1.05,1.231,1.3,2,.336,.999,.505,2.046,.5,3.1v.9h-10.4v-2h7.9c.022-.592-.116-1.18-.4-1.7-.26-.544-.678-.997-1.2-1.3-.512-.305-1.106-.445-1.7-.4-.664,.01-1.317,.182-1.9,.5-.525,.343-.941,.829-1.2,1.4-.297,.552-.435,1.175-.4,1.8v1.5c-.048,.766,.126,1.53,.5,2.2,.263,.6,.721,1.094,1.3,1.4,.579,.33,1.234,.503,1.9,.5l1.3-.2,1.1-.6c.258-.332,.461-.703,.6-1.1l2.4,.5c-.171,.677-.515,1.298-1,1.8-.503,.598-1.16,1.047-1.9,1.3-.811,.247-1.652,.381-2.5,.4h0Zm11-8v7.7h-2.6V15.8h2.5v2.2h.1c.298-.717,.825-1.315,1.5-1.7,.724-.431,1.558-.639,2.4-.6,.795-.011,1.582,.16,2.3,.5,.677,.412,1.229,1,1.6,1.7,.431,.833,.638,1.763,.6,2.7v8.3h-2.6v-8c.059-.796-.192-1.584-.7-2.2-.534-.584-1.313-.881-2.1-.8-.531-.037-1.058,.104-1.5,.4-.5,.203-.897,.6-1.1,1.1-.297,.552-.435,1.175-.4,1.8h0Zm17.9-5.4v2.1h-7.2v-2.1h7.2Zm-5.3-3.1h2.6v12.4c-.011,.377,.057,.751,.2,1.1l.6,.5h1.7l.4,2.1-.6,.2h-1c-.656,.021-1.308-.116-1.9-.4-.582-.19-1.077-.58-1.4-1.1-.418-.581-.629-1.285-.6-2V12.7Zm11.9,16.5c-.754,.031-1.505-.106-2.2-.4-.64-.329-1.189-.81-1.6-1.4-.421-.655-.63-1.423-.6-2.2-.035-.625,.103-1.248,.4-1.8,.298-.464,.712-.843,1.2-1.1,.496-.311,1.035-.547,1.6-.7l1.8-.3,1.9-.2,1.1-.3c.212-.168,.325-.431,.3-.7h0c.034-.654-.18-1.297-.6-1.8-.534-.435-1.213-.65-1.9-.6-.715-.029-1.419,.182-2,.6-.444,.336-.789,.785-1,1.3l-2.4-.6c.257-.713,.666-1.362,1.2-1.9,.548-.498,1.196-.873,1.9-1.1,.749-.205,1.523-.306,2.3-.3,1.149-.004,2.281,.27,3.3,.8,.531,.366,.974,.844,1.3,1.4,.34,.718,.511,1.505,.5,2.3v8.7h-2.5v-1.8h-.1c-.175,.397-.451,.742-.8,1-.342,.345-.75,.617-1.2,.8-.612,.205-1.254,.306-1.9,.3Zm.6-2c.62-.016,1.231-.152,1.8-.4,.46-.26,.84-.64,1.1-1.1,.272-.452,.411-.972,.4-1.5v-1.7l-.5,.3-.9,.2h-1.7l-1.4,.3-1,.7c-.232,.317-.338,.709-.3,1.1-.048,.561,.222,1.102,.7,1.4,.506,.425,1.139,.671,1.8,.7Zm11.8-15.7V28.9h-2.5V11.5h2.5ZM17.5,3h.6c1.052,.086,2.074,.392,3,.9l.9,.5,.9-.5c.926-.508,1.948-.814,3-.9h.6c3.849-.022,7.09,2.873,7.5,6.7,.2,2.9-2.9,13-5.7,20.6-1.3-2.2-3-5.1-4.5-8.1l-1.8-3.4-1.8,3.4c-1.6,3-3.2,5.9-4.5,8.1-2.8-7.6-5.9-17.7-5.7-20.6,.41-3.827,3.651-6.722,7.5-6.7M26.5,1h-.8c-1.287,.154-2.538,.526-3.7,1.1-1.156-.588-2.41-.961-3.7-1.1h-.8c-4.914-.022-9.034,3.708-9.5,8.6-.4,5.1,7.3,25.4,7.3,25.4,0,0,3.5-5.9,6.7-11.9,3.2,6,6.7,11.9,6.7,11.9,0,0,7.7-20.3,7.3-25.4-.466-4.892-4.586-8.622-9.5-8.6Z" />
</svg>
